<svg viewBox="-20 -20 400 400" xmlns="http://www.w3.org/2000/svg" height="400" width="400" style="background-color: #ffffff"><g><path d="M168.192 187.7706c0 125.67960000000001 0.54 120.12480000000001 -1.26 125.14500000000001a20.3508 20.3508 0 0 1 -6.2585999999999995 9.3078 28.297800000000002 28.297800000000002 0 0 1 -11.34 6.2244c-0.9612 0.2232 -52.1766 9.324 -104.166 16.5978 -19.5588 2.7378 -32.5026 1.7658 -30.9816 -24.039 0.0108 -0.18000000000000002 -4.905 -237.43980000000002 -4.914 -237.6216a467.75160000000005 467.75160000000005 0 0 1 1.3662 -52.7616C11.610000000000001 19.8 20.52 15.48 31.177800000000005 13.8978c8.8506 -1.3104 106.7202 15.9984 118.1898 20.8044a23.1336 23.1336 0 0 1 9.864 8.8794c9.3168 13.4892 6.633 32.0904 6.7806 43.8138 0.23940000000000003 18.900000000000002 0.2772 -2.7234 2.4804 100.3518a1.1628 1.1628 0 0 1 -0.30060000000000003 0.0234ZM17.2908 309.79800000000006c0.08460000000000001 19.5786 -3.6306 34.8498 18.6732 33.0336 27.6624 -2.2518 84.91499999999999 -13.4532 104.9076 -15.264000000000001 14.1858 -1.2852 25.869600000000002 -8.8308 25.740000000000002 -22.8456 -1.0151999999999999 -112.79520000000001 0.36000000000000004 -88.2666 -1.6344 -186.04440000000002 -0.24480000000000002 -12.042000000000002 -0.5778 -24.085800000000003 -0.7992 -36.1278 -0.2808 -15.3 1.7568 -26.2926 -6.5952 -38.586600000000004 -5.724 -8.4222 -14.3892 -10.610999999999999 -28.0044 -12.6792C73.7478 22.8024 44.004599999999996 15.813 33.66 16.7256c-7.38 0.6516 -19.7334 5.2344 -20.340000000000003 12.1122 -3.6 40.4712 3.9600000000000004 278.1288 3.9708 280.9602Z" fill="#043f6d" stroke-width="1"></path><path d="M191.4084 187.2252c3.4398 -123.00120000000001 2.394 -79.53659999999999 2.3184 -114.8058 -0.030600000000000002 -13.586400000000001 3.0383999999999998 -28.933200000000003 14.4414 -36.2916 10.1322 -6.5358 111.9744 -23.400000000000002 120.60000000000001 -22.23 8.5572 1.1664 18.9738 5.3406 20.1096 13.860000000000001 0.6462 4.86 1.287 9.7362 1.4598000000000002 14.628600000000002 1.6524 46.8306 -0.23940000000000003 40.4352 -0.45180000000000003 54.72 -0.18000000000000002 11.700000000000001 0.35100000000000003 55.0242 -0.54 93.5604 -0.8280000000000001 35.64 -3.1392 95.6916 -3.744 119.50019999999999 -0.18000000000000002 7.300800000000001 1.4058000000000002 13.975200000000001 -1.0313999999999999 24.4566 -1.8558 7.9848 -8.055 11.817 -15.9246 11.5326a296.82 296.82 0 0 1 -35.595 -4.1958c-46.8162 -7.398000000000001 -7.570800000000001 -0.8478 -59.26499999999999 -9.619200000000001 -23.0616 -3.9149999999999996 -23.5224 -3.3534 -29.138399999999997 -6.4224000000000006a22.6584 22.6584 0 0 1 -12.506400000000001 -17.0028c-0.2988 -1.9800000000000002 -0.2088 6.7806 -0.2088 -121.66919999999999 -0.189 -0.009000000000000001 -0.35100000000000003 -0.009000000000000001 -0.5237999999999999 -0.0216Zm155.38500000000002 -6.0156a1.3536000000000001 1.3536000000000001 0 0 1 -0.2088 -0.0108c0.162 -11.266200000000001 0.47700000000000004 -22.521600000000003 0.45180000000000003 -33.787800000000004 -0.1998 -93.528 2.3706 -46.800000000000004 -0.045000000000000005 -116.15040000000002a10.9998 10.9998 0 0 0 -5.436 -9.360000000000001 33.66 33.66 0 0 0 -23.400000000000002 -5.0184c-13.9608 1.62 -32.448600000000006 5.229 -52.3566 8.64 -36.8802 6.3324 -41.0022 6.0102 -49.1904 8.8902 -9.360000000000001 3.2904 -12.1014 4.5 -17.19 15.067800000000002 -4.5882 9.54 -3.4326000000000003 18.0972 -3.825 42.573600000000006 -2.3040000000000003 144 -1.4831999999999999 41.1768 -2.1096 212.7366a19.2006 19.2006 0 0 0 7.626600000000001 16.169400000000003 30.06 30.06 0 0 0 15.417 6.4206c26.506800000000002 2.8134 8.317800000000002 1.3842 82.98 12.4362a236.268 236.268 0 0 0 29.556000000000004 3.177c7.1586 0.1512 12.5316 -4.761 13.041 -9.5868 1.4706 -13.941 0.5508 -21.367800000000003 0.6372 -34.2612 0.0468 -6.057 -0.8244 24.9066 4.0518 -117.93599999999999Z" fill="#043f6d" stroke-width="1"></path><path d="M29.340000000000003 312.6258c-0.7884 -10.3302 -1.8792000000000002 -34.239599999999996 -3.3732 -56.9106 -2.286 -34.698600000000006 -1.5732 -50.8752 -2.8800000000000003 -160.1262 -0.25020000000000003 -20.691 1.4202000000000001 -36.651599999999995 1.7838 -42.9084 22.2966 4.86 60.8868 7.1046000000000005 128.34 14.940000000000001 2.574 0.2988 2.5056 0.37079999999999996 2.6550000000000002 3.0023999999999997 2.3742 41.8176 1.8 83.6856 2.2716000000000003 125.53920000000001 0.324 28.657799999999998 0.7758 94.9392 0.7758 98.98559999999999 -22.356 2.9484 -18.3006 2.1042 -44.1 4.9842 -75.4668 8.4222 -78.07679999999999 12.906 -85.473 12.4938ZM148.86 212.778l-0.279 -3.7908c2.5506 0.8226 5.0886000000000005 1.629 7.7543999999999995 2.4858000000000002 0 -0.18000000000000002 -0.6822 -105.0102 -2.133 -140.1552 -0.045000000000000005 -1.1232 -0.3816 -1.4849999999999999 -1.4706 -1.5876000000000001 -45.9 -4.32 -99.2916 -8.942400000000001 -125.47080000000001 -14.453999999999999 -0.18000000000000002 0.7415999999999999 -1.0638 24.9876 -1.0548 34.6572 0.014400000000000001 15.866999999999999 1.1934 40.9266 1.1934 137.88 0.8298000000000001 0.2376 0 0.2988 3.7206000000000006 -1.9368 3.5262000000000002 -2.1186000000000003 7.0649999999999995 -4.212 10.5894 -6.3216 2.3994 0.5562 4.7916 1.0944 7.2 1.6506a104.89680000000001 104.89680000000001 0 0 0 -19.98 10.3968A1.9314 1.9314 0 0 0 27.900000000000002 233.64000000000001c0.4266 7.128 0.7542 14.257800000000001 1.1484 21.3732 3.3426 60.330600000000004 2.7702 47.507400000000004 2.7702 54.5004 74.72160000000001 -13.185 71.7822 -10.346400000000001 125.06400000000001 -16.3548 0 -32.857200000000006 0.2142 -6.899400000000001 -0.4752 -76.7538 -0.009000000000000001 -0.927 -0.12600000000000003 -1.5102 -1.2060000000000002 -1.773 -2.133 -0.5237999999999999 -4.2336 -1.2168 -6.3414 -1.854Z" fill="#043f6d" stroke-width="1"></path><path d="M81.58500000000001 323.649c-3.42 -1.9062 -2.7 -10.062 5.3208 -10.7334 5.9922 -0.5004000000000001 11.997 -0.9144 18 -1.368 6.174 -0.46440000000000003 7.1586 6.1074 2.7828 8.9838s-22.68 5.022 -26.1036 3.1176Zm9.3312 -1.3554c5.232600000000001 -0.7056 11.446200000000001 -1.1988 16.227 -3.177a3.06 3.06 0 0 0 1.26 -5.0184c-1.7136 -1.746 -2.43 -1.1754 -21.6 0.3024 -5.6178 0.432 -7.7688 7.524 -2.178 7.880400000000001 1.8521999999999998 0.1188 3.7062000000000004 0.0126 6.291 0.0126Z" fill="#043f6d" stroke-width="1"></path><path d="M87.588 42.6078c0 -0.36000000000000004 0.0252 -5.7276 5.3856 -5.7276 7.677 0 9.8748 14.0616 1.8665999999999998 14.0616 -1.6002 -0.0018000000000000002 -7.2522 -0.4554 -7.2522 -8.334Zm6.0246 -3.9816000000000003a4.7862 4.7862 0 0 0 -4.32 4.721400000000001c0 0.1296 0.1116 6.0516000000000005 5.317200000000001 6.0516000000000005 6.345 0 4.2894000000000005 -10.773000000000001 -0.9972000000000001 -10.773000000000001Z" fill="#043f6d" stroke-width="1"></path><path d="M330.6942 312.60240000000005a15.75 15.75 0 0 1 -2.5506 -0.0216c-15.659999999999998 -2.7125999999999997 -31.248 -5.8302 -46.980000000000004 -8.0568 -22.0968 -3.1284 -34.568999999999996 -3.6 -76.8942 -8.982000000000001 -3.0942000000000003 -0.3942 -3.0798 -0.49860000000000004 -3.0708 -3.6395999999999997 0.1656 -62.157599999999995 1.584 -221.8716 3.4074 -223.92000000000002 0.54 -0.6030000000000001 1.9944000000000002 -0.3816 3.0492 -0.49860000000000004 58.284000000000006 -6.498 62.0172 -6.202800000000001 108.6156 -11.6028 5.193 -0.6012000000000001 10.341000000000001 -1.62 15.498 -2.4696000000000002 1.1124 -0.18000000000000002 2.2014 -0.48600000000000004 3.4542 -0.765 0.09179999999999999 1.2996 0.1494 2.3400000000000003 0.25379999999999997 3.3732 2.6892 26.566200000000002 1.0026000000000002 53.1666 0.7884 79.75619999999999 -0.54 66.78 0.8532 74.55600000000001 -2.9088000000000003 132.1578 -1.2942 19.886400000000002 -2.0826000000000002 40.318200000000004 -2.6622000000000003 44.6688Zm-126.36000000000001 -82.44a3.6 3.6 0 0 0 -0.8586 2.2014c-0.0108 2.6604 -0.4032 54.7416 -0.26639999999999997 57.443400000000004 6.130800000000001 -6.0498 11.879999999999999 -12.123000000000001 19.378800000000002 -16.146 -2.4696000000000002 -4.5738 -5.2488 -8.3106 -2.9088000000000003 -18.6372 5.623200000000001 -24.814799999999998 18.5202 -46.800000000000004 17.9316 -47.0934 -0.0018000000000000002 0.36719999999999997 -15.866999999999999 2.8638 -33.2784 22.2282Zm61.5114 -92.88000000000001a2.16 2.16 0 0 0 -2.5038 0.18000000000000002c-2.4282 1.6074000000000002 -4.9122 1.773 -6.501600000000001 0.0936a4.642200000000001 4.642200000000001 0 0 0 -4.0914 -1.1826c0.9 2.7 0.1638 3.7710000000000004 -2.7125999999999997 4.0572a1.5984 1.5984 0 0 0 -1.0080000000000002 0.9162c-0.7074 1.8 -1.6344 3.753 -3.6990000000000003 3.6a5.58 5.58 0 0 0 -3.9869999999999997 1.5191999999999999c-0.441 0.3114 -1.0313999999999999 0.4176 -1.4831999999999999 0.7200000000000001 -0.3132 0.2088 -0.7200000000000001 0.6264 -0.7074 0.927 0.7578 15.879599999999998 -0.4428 27.540000000000003 9.5274 33.9156a75.0294 75.0294 0 0 0 8.694 4.2534c1.0188 0.47700000000000004 1.8936000000000002 1.0188 1.8774 2.295 -0.045000000000000005 3.6971999999999996 -0.08460000000000001 7.407000000000001 -0.23220000000000002 11.104199999999999 -0.1116 2.8386 -7.803 4.6962 -9.9324 5.3658 2.52 1.4958 4.2102 4.0806 12.6558 4.32a37.1214 37.1214 0 0 0 14.675400000000002 -2.6424c2.4228 -0.9504 4.7286 -2.1906000000000003 7.081200000000001 -3.3048 -0.162 -0.5940000000000001 -7.502400000000001 -2.5452 -7.684200000000001 -2.5956a1.9278 1.9278 0 0 1 -1.5066 -2.16c0.1314 -12.0456 0.0252 -8.020800000000001 0.2196 -11.520000000000001 -5.6916 1.9134 -6.66 2.0178000000000003 -7.9632000000000005 0.7200000000000001 0.7200000000000001 -0.3924 1.368 -0.7974 2.0627999999999997 -1.0998 1.62 -0.7038000000000001 3.2688 -1.2888 4.8456 -2.0627999999999997 9.5778 -4.7016 12.3804 -10.6884 14.76 -21.177000000000003 1.9242 0.927 3.6971999999999996 1.8197999999999999 5.6574 0.5670000000000001a1.6614000000000002 1.6614000000000002 0 0 1 -0.2214 -0.3816c-1.089 -1.935 0.18000000000000002 -2.1204 1.4022000000000001 -1.5876000000000001 0.6084 0.081 0.8586 1.1268 2.052 0.162 5.2722 -4.2623999999999995 -0.0684 -11.745000000000001 -5.193 -8.6112a2.79 2.79 0 0 1 -3.9869999999999997 -0.9864 10.9908 10.9908 0 0 1 -0.7415999999999999 -2.4804c-3.4415999999999998 0.37079999999999996 -4.206600000000001 -0.4176 -4.86 -5.2614 -2.034 0 -4.1148 0.1062 -5.877000000000001 -1.728 -2.0160000000000005 -2.1006 -1.62 -4.32 -1.3788 -6.8724 -2.7738 1.9368 -5.328 2.988 -9.241200000000001 0.936Zm66.9924 -82.11059999999999c-2.259 0.54 -4.347 1.2276 -6.48 1.5191999999999999 -38.6856 5.2866 -17.8578 2.9106 -118.66680000000001 12.9816 -1.26 0.12600000000000003 -1.7856 0.4284 -1.8197999999999999 1.8774 -0.26639999999999997 11.0232 -0.7902 22.0464 -0.9396000000000001 33.080400000000004 0 0.18000000000000002 -1.5606 120.52080000000001 -1.332 122.11919999999999 0.9324 0.5184 8.2242 -12.1464 28.4778 -19.877399999999998 14.668199999999999 -5.5998 17.1396 -3.3588000000000005 23.9814 -7.5798000000000005a1.7694 1.7694 0 0 0 0.6372 -1.3212c0 -2.6442 -0.24300000000000002 -5.2866 -0.11520000000000001 -7.920000000000001 0.0702 -1.4400000000000002 -0.49860000000000004 -1.8881999999999999 -1.6686 -2.3544a30.924 30.924 0 0 1 -10.6416 -5.8302 1.7369999999999999 1.7369999999999999 0 0 0 -1.332 -0.24300000000000002 10.112400000000001 10.112400000000001 0 0 1 -9.378 -3.9762000000000004 10.98 10.98 0 0 1 2.4192 -14.855400000000001 2.3616 2.3616 0 0 0 0.6966 -1.5642c0.0936 -4.3938 0.1098 -8.7984 0.1044 -13.1904a1.62 1.62 0 0 0 -0.54 -1.1826c-3.6251999999999995 -2.5452 -1.4634 -4.6962 -1.62 -6.559200000000001a40.159800000000004 40.159800000000004 0 0 1 -0.441 -4.383 26.82 26.82 0 0 1 2.3400000000000003 -11.2428 4.365 4.365 0 0 1 -4.2894000000000005 -3.4758c-0.41940000000000005 -2.3652 1.4616000000000002 -3.4668 3.0366 -4.6134 -3.0132 -5.7726 -1.0998 -9.783 2.5506 -11.138399999999999a9.9954 9.9954 0 0 1 2.3400000000000003 -9.5508 8.352 8.352 0 0 1 9.018 -3.3966000000000003c1.26 -4.788 4.8797999999999995 -6.5268 9.099 -7.083a14.544 14.544 0 0 1 11.3004 3.9600000000000004c2.7576 -3.24 5.178599999999999 -3.6251999999999995 8.728200000000001 -1.4849999999999999a13.3758 13.3758 0 0 1 5.760000000000001 6.156c3.222 -2.0052000000000003 5.9399999999999995 -1.5948 8.7966 1.2852a11.2068 11.2068 0 0 1 3.096 6.5376c0.36000000000000004 2.5956 -1.1124 4.4748 -2.8512000000000004 6.4332a5.7222 5.7222 0 0 1 6.3162 1.935 4.744800000000001 4.744800000000001 0 0 1 0.0468 6.3288 6.5376 6.5376 0 0 1 2.736 9.6786 5.4306 5.4306 0 0 1 1.8881999999999999 5.7258000000000004 4.1814 4.1814 0 0 1 -4.6584 3.0834c0 6.4458 -3.2616 6.9462 -3.06 7.920000000000001a14.612400000000001 14.612400000000001 0 0 1 -0.8352 8.2656c6.710400000000001 1.6578000000000002 7.7652 7.65 2.3994 13.3056a10.6542 10.6542 0 0 1 1.1232 10.08 7.666200000000001 7.666200000000001 0 0 1 -8.658 5.3424000000000005 30.06 30.06 0 0 1 -4.9842 -2.0286 28.9584 28.9584 0 0 1 -8.217 7.5924000000000005c-0.9 0.54 -0.5256 1.8828 -0.4284 10.6758 0.0234 2.1906000000000003 -0.0234 2.2608 2.16 2.7702 21.258000000000003 4.9626 28.7028 5.1048 53.8632 19.913400000000003 0 -12.519 0.4554 -78.48 0.7992 -106.77420000000001 0.3726 -29.9592 0.7020000000000001 -26.8596 -0.7578 -56.9412ZM308.34000000000003 210.24c-2.5506 -1.0998 2.295 0.4932 -18.3708 -5.5404 -4.9662 -1.4508 -1.62 0.5184 -10.4202 4.300199999999999a38.7306 38.7306 0 0 1 -21.6864 3.2561999999999998c-10.665 -1.6956 -10.647 -6.9678 -12.263399999999999 -6.710400000000001 -2.592 0.4122 -4.9122 1.0548 -6.0966000000000005 3.9168000000000003 -3.8178 9.230400000000001 -12.24 25.1352 -17.037 46.5606a19.119600000000002 19.119600000000002 0 0 0 2.0052000000000003 14.859000000000002c5.331600000000001 8.7138 5.6394 12.6846 7.2324 24.2244 0.4266 3.0996 -0.2232 -1.5894000000000001 78.01740000000001 10.9422 3.8826 -10.98 6.2694 -22.2426 9.376199999999999 -33.219a32.0958 32.0958 0 0 1 -9.6786 -6.6996c-8.8704 -9.264600000000002 -9.882000000000001 -23.3028 -8.600399999999999 -36a36.709199999999996 36.709199999999996 0 0 1 7.522200000000001 -19.89Zm10.2132 59.2398c-1.7424 -3.114 -2.4444000000000004 -3.9600000000000004 -3.2237999999999998 -5.5404 -0.198 -0.405 0.1044 -1.0548 0.18000000000000002 -1.5984 0.49860000000000004 0.11520000000000001 1.125 0.07919999999999999 1.4831999999999999 0.37079999999999996a7.695000000000001 7.695000000000001 0 0 1 1.7514 1.9584000000000001c9.360000000000001 15.6366 7.6536 13.068 10.360800000000001 18.765 0.37079999999999996 -2.2608 -0.3978 5.7834 3.5118 -59.448600000000006a1.8954 1.8954 0 0 0 -1.0188 -1.9134 142.704 142.704 0 0 0 -19.206 -10.2222 1.6614000000000002 1.6614000000000002 0 0 0 -2.2608 0.48600000000000004c-6.3954 7.0596000000000005 -7.137 20.5398 -6.642 30.0906a35.82 35.82 0 0 0 6.201 19.5642 18.1098 18.1098 0 0 0 8.857800000000001 7.4934Zm9.5148 40.0356c0.7398 -17.9082 0.8712 -17.532 0.4068 -18.790200000000002a99.828 99.828 0 0 0 -7.002000000000001 -16.133399999999998c-2.619 11.034 -4.86 21.7332 -8.9712 31.978799999999996 5.1642 0.9900000000000001 10.287 1.9494 15.561 2.9502Zm-98.8686 -13.446c-1.1358000000000001 -7.0596000000000005 -1.4400000000000002 -14.0832 -5.4126 -20.16a122.29920000000001 122.29920000000001 0 0 0 -19.6002 17.4096l25.0074 2.7558Zm57.7098 -174.1284a7.6752 7.6752 0 0 1 -1.4724 1.5876000000000001 2.2284 2.2284 0 0 0 -1.08 2.4354 8.2314 8.2314 0 0 1 -1.8 5.8302 14.956199999999999 14.956199999999999 0 0 1 -1.9800000000000002 1.7604c5.9814 4.3362 10.5606 9.4122 12.78 16.6338a16.740000000000002 16.740000000000002 0 0 0 0.6606 -1.8 12.2166 12.2166 0 0 0 -1.5534000000000001 -9.72 12.740400000000001 12.740400000000001 0 0 1 -0.765 -1.62c2.3076000000000003 0.1278 2.7594 2.0987999999999998 3.906 3.3498 1.971 -3.303 2.1996 -5.58 0.54 -8.253 -2.0016000000000003 -3.1896 -4.2084 -7.7652 -9.241200000000001 -10.1988ZM266.76 135.7866c0.9144 0.081 1.773 0.23040000000000002 2.619 0.23040000000000002a5.355 5.355 0 0 0 5.668200000000001 -6.3864c-0.5688 -4.32 -2.493 -8.3556 -6.631200000000001 -9.828s-6.4584 -0.5688 -6.246 4.428a5.4594 5.4594 0 0 0 0.684 2.52c3.5568 5.8878 5.7906 5.7168 3.906 9.036Zm13.0734 -25.651799999999998 0.279 -0.3816c-7.1208 -5.8734 -21.0006 -7.506 -22.383000000000003 0.54a16.155 16.155 0 0 0 -0.0684 3.3138c0.0504 1.2762 2.538 2.4912 3.4992 1.6704 4.6386 -3.9600000000000004 10.1808 -2.736 11.127600000000001 -3.3732a11.8008 11.8008 0 0 1 7.5456 -1.7694Zm-17.2926 6.247800000000001c0.8694 1.2402 0.8802 1.323 2.3184 1.044 5.796 -1.1268 13.2858 6.0102 12.204 15.1722a7.297200000000001 7.297200000000001 0 0 0 3.8142000000000005 -10.08c-3.231 -7.372800000000001 -10.3968 -9.972 -18.3366 -6.1362Zm-17.6076 8.681400000000002a7.2936 7.2936 0 0 0 7.3494 8.7858c3.9078 0.18000000000000002 6.6042000000000005 0.25020000000000003 9.145800000000001 -2.7a2.4732000000000003 2.4732000000000003 0 0 0 -0.7542 -3.8142000000000005 11.2248 11.2248 0 0 0 -8.762400000000001 -0.3114 2.6478 2.6478 0 0 1 -3.5352 -0.8478c-0.7200000000000001 -0.8208000000000001 -1.3752 -0.7164 -3.4434 -1.1124Zm44.64 42.040800000000004a35.9568 35.9568 0 0 1 -2.7828 9.052200000000001c4.5216 2.3634 8.2278 1.1340000000000001 9.8298 -3.24a7.362 7.362 0 0 0 -0.6030000000000001 -6.165 1.5588 1.5588 0 0 0 -1.2978 -0.48780000000000007c-1.6506 0.1944 -3.2832000000000003 0.5274 -5.1372 0.8406ZM256.05 114.795a10.1502 10.1502 0 0 1 0.9504 -9 20.4714 20.4714 0 0 0 -8.613000000000001 5.668200000000001 10.0332 10.0332 0 0 0 -2.9196000000000004 8.4726 4.3596 4.3596 0 0 0 1.6686 3.384c0.3366 -4.734 2.0754 -8.015400000000001 8.9136 -8.524799999999999Zm4.3344 9.8514a7.588800000000001 7.588800000000001 0 0 1 1.9134 -6.3864 12.3804 12.3804 0 0 0 -7.0704 -1.0188 9.4032 9.4032 0 0 0 -3.825 1.3212c-2.1294 1.6362 -2.3652 4.206600000000001 -1.044 7.1748 3.0023999999999997 -3.096 6.4674000000000005 -2.1672 10.026000000000002 -1.0908Zm-16.38 7.0938c-0.057600000000000005 -0.12600000000000003 -0.23220000000000002 -0.45180000000000003 -0.3834 -0.7884a6.9192 6.9192 0 0 1 -0.2088 -6.408 2.0358 2.0358 0 0 0 -0.25379999999999997 -2.52 6.039 6.039 0 0 1 -1.3446 0.9738000000000001 7.250399999999999 7.250399999999999 0 0 0 -4.7754 6.8148c-0.25020000000000003 2.4912 -0.48780000000000007 4.9716000000000005 -0.765 7.6734 2.7845999999999997 -2.07 5.2074 -3.8789999999999996 7.722 -5.7456000000000005Zm-7.0001999999999995 32.8482c-2.9214 3.5118 -3.51 7.047000000000001 -1.7172 10.746 1.26 2.583 3.6630000000000003 3.3948 6.642 3.7206000000000006 -3.5208 -4.300199999999999 -3.9690000000000003 -9.3888 -4.933800000000001 -14.466600000000001Zm46.71 -42.49080000000001a5.2488 5.2488 0 0 0 0.23220000000000002 -6.793200000000001 7.2989999999999995 7.2989999999999995 0 0 0 -8.64 -2.2248 15.949800000000002 15.949800000000002 0 0 1 8.398800000000001 9.018Zm-25.92 14.059800000000001a6.971400000000001 6.971400000000001 0 0 0 7.38 -3.3858c-0.5094 -0.54 -1.0188 -1.0998 -1.575 -1.692 -1.0944 2.6208 -1.8 3.2346 -5.8104000000000005 5.077800000000001Z" fill="#043f6d" stroke-width="1"></path><path d="M275.08140000000003 324.5994c-9.9216 -1.4651999999999998 -22.2498 -0.5147999999999999 -24.9894 -6.8508000000000004a4.2084 4.2084 0 0 1 3.7800000000000002 -6.130800000000001c2.7485999999999997 -0.027 0.06659999999999999 0.0504 18.9738 1.26 8.2674 0.531 9.18 8.6544 5.715 10.71a13.3056 13.3056 0 0 1 -3.4794 1.0116Zm-19.519199999999998 -11.6712c-5.454 -0.342 -5.8014 4.428 -2.943 6.039a12.517199999999999 12.517199999999999 0 0 0 2.8278 1.08 72.639 72.639 0 0 0 20.052000000000003 2.2608c3.4415999999999998 -0.0342 3.4002 -2.3616 2.781 -4.59 -0.2934 -1.0566 -1.8 -3.0906000000000002 -5.598 -3.3966000000000003 -15.4152 -1.242 -16.2414 -1.2312 -17.119799999999998 -1.3932Z" fill="#043f6d" stroke-width="1"></path><path d="M267.084 36.8244c2.9358 0 5.7456000000000005 2.3598 5.436 5.04 -0.18000000000000002 9.471599999999999 -6.606 9.131400000000001 -6.84 9.131400000000001 -1.2276 0 -5.4432 -0.0468 -5.4432 -5.9094 -0.0018000000000000002 -4.968 3.7602 -8.262 6.8472 -8.262Zm-1.5768 12.5874c4.244400000000001 0 5.2416 -3.9600000000000004 5.2416 -6.084a4.5161999999999995 4.5161999999999995 0 0 0 -4.251600000000001 -4.6908c-5.4234 0 -7.230600000000001 10.774799999999999 -0.9972000000000001 10.774799999999999Z" fill="#043f6d" stroke-width="1"></path><path d="M57.4884 64.3284c-2.6028 -0.6768000000000001 -22.0104 -2.3724000000000003 -22.208399999999997 -2.3868 -1.0548 -0.081 -0.783 4.788 -0.7992 33.2064 0 2.2374 -0.0126 2.3058 2.178 2.2608 6.8976 -0.1422 13.7934 -0.3258 20.7 -0.49860000000000004 1.854 -0.0468 2.1294 -0.24300000000000002 2.1438 -2.0627999999999997q0.1062 -13.8906 0.162 -27.783c0 -2.0394 -0.1926 -2.2194000000000003 -2.1762 -2.736Zm-20.3652 31.527c0 -7.460999999999999 -0.873 -7.6914 3.4650000000000003 -10.674a6.12 6.12 0 0 1 1.2402 -0.5688 0.342 0.342 0 0 1 0.4176 0.1278 6.048 6.048 0 0 1 -0.09179999999999999 6.130800000000001c-0.3348 0.41040000000000004 -1.3986 0.5922000000000001 -1.1826 0.5922000000000001 0.0684 -0.37079999999999996 0.1512 -0.7415999999999999 0.2196 -1.1124 -0.36000000000000004 0.10260000000000001 -0.9 0.10260000000000001 -1.0422 0.34740000000000004 -0.7614 1.3518000000000001 -2.6892 4.7988 -3.0258000000000003 5.157000000000001Zm4.0806 -0.2772a27.6174 27.6174 0 0 1 -2.7594 0.162 16.2666 16.2666 0 0 1 1.4022000000000001 -2.52s1.3914 2.2878 1.3572 2.3598Zm10.5354 -1.044c-0.1188 0.33840000000000003 0.4428 0.0342 -9.806400000000002 0.684a0.3312 0.3312 0 0 1 -0.3348 -0.2196c-0.36000000000000004 -1.0548 -0.5094 -1.2042000000000002 -0.2556 -1.4022000000000001 3.483 -2.727 4.010400000000001 -4.8924 2.3760000000000003 -10.08 0.7200000000000001 -0.18000000000000002 1.08 -0.4806 1.692 -0.18000000000000002 2.0124000000000004 0.9684 4.1724000000000006 1.413 5.9814 -0.2088 0.26639999999999997 0.6264 0.5004000000000001 1.08 0.6606 1.5876000000000001 0.36000000000000004 1.0998 0.5742 2.2392 0.9972000000000001 3.3156000000000003a4.4298 4.4298 0 0 1 -0.5796 4.680000000000001 6.5556 6.5556 0 0 0 -0.7308000000000001 1.8234Zm-8.136 -19.5426a0.8838 0.8838 0 0 1 0.9846000000000001 0.1512 1.5624 1.5624 0 0 0 2.457 -0.162c0.4212 -0.7200000000000001 1.4400000000000002 -1.08 2.16 -1.5876000000000001 0.3834 0.405 0.6264 0.9 0.9864 0.9972000000000001a1.6560000000000001 1.6560000000000001 0 0 1 1.4706 1.7027999999999999c0.0738 1.3212 0.3942 2.6064 -0.9 3.339 -1.125 0.6354 -1.4400000000000002 1.1358000000000001 -1.0422 2.8800000000000003 0.54 2.3994 -2.9574000000000003 0.8118000000000001 -2.9574000000000003 0.8118000000000001 -0.28800000000000003 0.0234 -0.162 -2.0987999999999998 -0.162 -2.0987999999999998a0.8838 0.8838 0 0 0 -0.0684 -0.684c-0.48960000000000004 -0.6120000000000001 -0.3042 -0.3924 -0.8694 -1.089a9.0576 9.0576 0 0 1 -0.8226 -2.1906000000000003c-0.0828 -0.18000000000000002 -1.1376 -0.30060000000000003 -1.3806 -0.684 -0.3456 -0.549 -0.18180000000000002 -1.35 0.14400000000000002 -1.3860000000000001Zm-0.4752 -0.8226a16.9434 16.9434 0 0 1 -0.0468 -1.7496 4.5972 4.5972 0 0 0 4.264200000000001 -0.8226 1.773 1.773 0 0 1 2.2266000000000004 -0.1278c0.8712 0.54 1.9692000000000003 -0.09000000000000001 2.619 0 0.7758 0.108 0.30060000000000003 1.9476000000000002 0.2556 1.9116000000000002a3.096 3.096 0 0 0 -2.3400000000000003 -0.34740000000000004 2.9556 2.9556 0 0 1 -2.4102 0.0126c-0.1062 -0.0594 -4.4424 1.1934 -4.5684 1.1232ZM55.800000000000004 95.10300000000001l-2.16 -0.198a0.3438 0.3438 0 0 1 -0.2898 -0.45180000000000003l0.5796 -1.611a0.3402 0.3402 0 0 1 0.5688 -0.11520000000000001l1.5768 1.8a0.342 0.342 0 0 1 -0.2754 0.5760000000000001Zm1.2060000000000002 -1.8900000000000001c-1.0206 -0.9972000000000001 -2.2068 -1.4598000000000002 -2.0627999999999997 -3.2561999999999998a11.879999999999999 11.879999999999999 0 0 0 -1.1358000000000001 -3.942c-0.162 -0.522 -0.3132 -1.0422 -0.54 -1.8 4.3038 1.8396000000000001 3.7458 4.2048 3.7458 8.998199999999999Zm0.4752 -24.526799999999998c-0.0378 1.8125999999999998 -0.3132 13.9104 -0.49860000000000004 16.425 -3.6918 -3.8268 -7.0326 -2.979 -6.9786 -3.8358a1.143 1.143 0 0 1 0.396 -0.7434 8.7174 8.7174 0 0 1 0.9864 -0.6714 2.0106 2.0106 0 0 0 0.9378000000000001 -1.2402A8.568 8.568 0 0 0 52.2 75.82679999999999c-0.1656 -0.8226 0.216 -0.54 0.441 -1.3212a6.9516 6.9516 0 0 0 -1.4256000000000002 -6.3972c-0.5688 -0.6498 -1.287 0.36000000000000004 -1.5768 -0.18000000000000002a1.413 1.413 0 0 0 -1.1934 -0.8586c-1.647 0.13319999999999999 -1.2996 0.5886 -2.0862000000000003 0.7542 -0.6498 0.1368 -1.3014 -0.432 -1.8197999999999999 -0.0468 -0.6174000000000001 0.459 -0.5526 1.5786 -0.9162 2.1906000000000003 -1.2906 2.178 -0.8676 2.475 -0.8802 3.24a3.8646 3.8646 0 0 0 0.37079999999999996 1.5984c0.12060000000000001 0.2682 -0.8856 1.4292 0.9612 2.4120000000000004 0.48600000000000004 0.25739999999999996 0.4446 1.341 0.7200000000000001 1.8a14.0076 14.0076 0 0 0 1.2294 1.4040000000000001c0.37979999999999997 0.5112 -0.0342 1.1808 -0.1278 1.5066a17.5086 17.5086 0 0 0 -8.344800000000001 3.7206000000000006c-0.2214 0.1962 -0.34740000000000004 -21.038400000000003 -0.34740000000000004 -21.038400000000003a0.3294 0.3294 0 0 1 0.3816 -0.3348c19.8342 3.0438 19.987199999999998 0.3132 19.9026 4.41Z" fill="#043f6d" stroke-width="1"></path><path d="M139.2264 105.70859999999999c-1.2294 1.494 -2.5956 2.862 -3.9402000000000004 4.264200000000001 -1.08 1.125 -2.16 0.198 -1.3104 -1.0080000000000002a50.9796 50.9796 0 0 1 4.5198 -5.238c0.5796 -0.8118000000000001 3.9528000000000003 -2.7468 0.7308000000000001 1.9818Z" fill="#043f6d" stroke-width="1"></path><path d="M141.5088 123.02459999999999a23.544 23.544 0 0 1 -4.1148 -0.5562c-0.7992 -0.2214 -1.7604 -1.8324 0.2214 -1.8324a24.66 24.66 0 0 1 4.4154 0.4752c4.0572 0.23220000000000002 3.024 2.241 -0.522 1.9134Z" fill="#043f6d" stroke-width="1"></path><path d="M141.33599999999998 114.5862a26.46 26.46 0 0 0 -5.0184 1.368c-0.684 0.36000000000000004 -1.503 -0.459 -0.765 -1.26a1.8 1.8 0 0 1 0.765 -0.558c1.6812 -0.41040000000000004 3.4092 -0.6426 5.076 -1.1358000000000001 2.9574000000000003 -0.8603999999999999 2.214 1.377 -0.057600000000000005 1.5858Z" fill="#043f6d" stroke-width="1"></path><path d="M132.2136 280.85580000000004c-0.3312 8.935200000000002 -6.971400000000001 12.342600000000001 -11.6028 8.64a11.925 11.925 0 0 1 -0.7758 -16.7832c4.881600000000001 -4.6782 12.0456 -0.45 12.3786 8.1432Zm-9.702 0.0126c-0.09179999999999999 -0.036000000000000004 -0.1962 -0.0702 -0.2898 -0.1044 0.1044 -0.4752 0.1512 -1.3464 0.3024 -1.368a14.0958 14.0958 0 0 1 3.5010000000000003 -0.1404c1.0422 0.117 0.8118000000000001 1.08 0.7290000000000001 1.8 -0.24300000000000002 2.1222000000000003 1.7226 1.4220000000000002 2.7702 1.3662 0.9504 -0.0486 1.2222000000000002 -0.5562 0.9630000000000001 -1.4022000000000001 -0.6048 -1.9800000000000002 -1.6452 -3.6216 -3.861 -3.8933999999999997a19.8756 19.8756 0 0 0 -4.671 -0.0234 3.7008 3.7008 0 0 0 -3.186 3.384c-0.11520000000000001 0.5922000000000001 0.09179999999999999 1.7496 0.3816 1.8305999999999998a5.3622000000000005 5.3622000000000005 0 0 0 2.7 -0.0216c0.3132 -0.0558 0.441 -0.918 0.6606 -1.4274Z" fill="#f8b6b2" stroke-width="1"></path><path d="M70.0056 298.0458a12.880799999999999 12.880799999999999 0 0 1 0.1278 -25.740000000000002 12.654 12.654 0 0 1 12.2166 13.167000000000002 12.481200000000001 12.481200000000001 0 0 1 -12.3444 12.573Zm10.44 -12.681000000000001a10.3122 10.3122 0 1 0 -10.3734 10.620000000000001 10.485000000000001 10.485000000000001 0 0 0 10.366200000000001 -10.620000000000001Z" fill="#043f6d" stroke-width="1"></path><path d="M110.5614 282.7908c-0.33840000000000003 9.6426 -9.5616 14.099400000000001 -15.5664 8.5194a12.893400000000002 12.893400000000002 0 0 1 -0.9954000000000001 -17.1774 8.82 8.82 0 0 1 14.5116 1.1484 13.2354 13.2354 0 0 1 2.0502000000000002 7.5096Zm-1.4598000000000002 0.0936c0.039599999999999996 -9.18 -8.253 -12.96 -13.386600000000001 -7.8588a10.7316 10.7316 0 0 0 -0.4176 13.968 7.2702 7.2702 0 0 0 11.700000000000001 -0.18000000000000002 9.9846 9.9846 0 0 0 2.1042 -5.9292Z" fill="#043f6d" stroke-width="1"></path><path d="M328.16700000000003 87.48c-0.0378 1.8881999999999999 -0.2826 3.7800000000000002 -0.4752 5.6664 -0.07200000000000001 0.7074 -0.3132 1.2833999999999999 -1.2276 1.4040000000000001 -16.7562 2.1852 -15.2676 2.4966 -19.508399999999998 1.7369999999999999a1.8 1.8 0 0 1 -1.1592 -1.2276c-1.9278 -18.900000000000002 -1.476 -13.2714 -0.6030000000000001 -30.448800000000002a1.8414 1.8414 0 0 1 1.647 -1.9134c5.7726 -1.107 11.520000000000001 -2.3400000000000003 17.316 -3.2796000000000003 3.6270000000000002 -0.5832 4.1634 -0.0468 4.2534 3.6 0.108 4.3128 -0.1674 20.6208 -0.24300000000000002 24.462Zm-3.447 -8.1882c0.26639999999999997 -5.7708 0.522 -11.485800000000001 0.7884 -17.28 -5.9399999999999995 0.882 -11.7414 1.7388 -17.744400000000002 2.6208l0 17.5014a9.703800000000001 9.703800000000001 0 0 1 1.773 -1.2402c1.8252000000000002 -0.756 1.6344 0.7434 0.846 1.2978 -1.773 1.2473999999999998 -3.0474 2.4696000000000002 -2.574 5.04a38.9268 38.9268 0 0 1 0.081 6.827400000000001l17.0046 -2.4696000000000002c0 -3.1644 -0.045000000000000005 -6.0624 0.0234 -8.9586a2.0232 2.0232 0 0 0 -1.2294 -2.0754c-1.7207999999999999 -0.9306000000000001 -1.8 -1.5984 1.0313999999999999 -1.2636Z" fill="#043f6d" stroke-width="1"></path><path d="M284.30820000000006 285.597a11.5668 11.5668 0 1 1 11.4282 12.0312 11.7234 11.7234 0 0 1 -11.4282 -12.0312Zm20.005200000000002 0.324a6.573600000000001 6.573600000000001 0 0 0 -5.2974000000000006 -4.5666 53.940599999999996 53.940599999999996 0 0 0 -6.885000000000001 -0.5688 5.1084000000000005 5.1084000000000005 0 0 0 -4.8797999999999995 3.096c-1.1934 2.52 -0.2286 2.7684 2.2032 3.0942000000000003 2.3184 0.3114 2.4624 0.2196 2.4336 -2.133 -0.014400000000000001 -1.1700000000000002 0.49860000000000004 -1.6902 1.5426 -1.5876000000000001 1.5408 0.15300000000000002 3.0708 0.4248 4.6008000000000004 0.7308000000000001 0.801 0.1602 0.9162 0.7415999999999999 0.7308000000000001 1.5066 -0.54 2.2266000000000004 -0.3852 2.457 1.8774 2.6532 2.8782 0.25200000000000006 4.687200000000001 0.28800000000000003 3.6738 -2.2248Z" fill="#f8b6b2" stroke-width="1"></path><path d="M260.3736 274.0176a8.9442 8.9442 0 0 1 12.4596 2.538 12.2832 12.2832 0 0 1 -1.449 15.6366 8.9496 8.9496 0 0 1 -14.4414 -2.295 12.103200000000001 12.103200000000001 0 0 1 3.4308 -15.879599999999998Zm6.1416 0.441a7.2936 7.2936 0 0 0 -7.4628 2.9556 10.067400000000001 10.067400000000001 0 0 0 -0.18000000000000002 12.482999999999999 7.4232 7.4232 0 0 0 10.8 1.3788c5.839200000000001 -4.7808 4.2876 -15.256800000000002 -3.1572 -16.8174Z" fill="#043f6d" stroke-width="1"></path><path d="M246.49919999999997 275.95259999999996A12.1824 12.1824 0 0 1 244.8 290.106c-4.14 4.104 -10.5228 2.4678 -12.529800000000002 -3.2814 -4.1868 -11.975399999999999 8.4168 -20.3292 14.229000000000001 -10.872Zm-0.9396000000000001 1.5876000000000001a6.0786 6.0786 0 0 0 -9.9558 -2.2248 10.0494 10.0494 0 0 0 -1.3338 12.3552c5.355 7.641 15.580800000000002 -0.4266 11.2896 -10.1304Z" fill="#043f6d" stroke-width="1"></path><path d="M261.7524 151.1208a39.3966 39.3966 0 0 1 -0.5922000000000001 8.577c-0.7614 5.324400000000001 -4.467600000000001 7.7292 -0.0216 9.4464 1.6344 0.6318 2.3058 2.1978000000000004 0.324 2.4804a4.8797999999999995 4.8797999999999995 0 0 1 -5.135400000000001 -5.598 5.8626000000000005 5.8626000000000005 0 0 1 0.6606 -1.971c1.9800000000000002 -3.24 1.6614000000000002 -6.8886 2.8638 -15.3234 0.08460000000000001 -0.5922000000000001 1.314 -5.157000000000001 1.9008 2.3886Z" fill="#043f6d" stroke-width="1"></path><path d="M272.2536 173.943c-3.2526 5.8914 -12.884400000000001 4.055400000000001 -11.520000000000001 1.5066 0.46980000000000005 -0.8784 6.1812000000000005 3.3462 10.98 -4.1148 0.54 -0.684 2.8008 -2.9663999999999997 0.54 2.6082Z" fill="#043f6d" stroke-width="1"></path><path d="M276.83099999999996 146.1708a0.8280000000000001 0.8280000000000001 0 0 1 -1.5408 0.6030000000000001c-1.7424 -1.5588 -3.5388 -4.192200000000001 -5.9814 -3.0023999999999997 -1.4814 0.7200000000000001 -2.178 -0.765 -0.6714 -1.494 3.7026 -1.7982 7.417800000000001 1.2653999999999999 8.1936 3.8933999999999997Z" fill="#043f6d" stroke-width="1"></path><path d="M271.1052 150.5412a2.8512000000000004 2.8512000000000004 0 0 1 2.4462 2.5848 2.493 2.493 0 0 1 -2.4228 2.52c-2.8332 -0.030600000000000002 -2.9412 -5.049 -0.0234 -5.1048Z" fill="#043f6d" stroke-width="1"></path><path d="M255.9096 143.1918a6.5484 6.5484 0 0 0 -4.3452 2.16c-0.882 1.9008 -1.6092 0.7308000000000001 -1.287 -0.8226 0.5004000000000001 -2.4102 4.6008000000000004 -3.9186 6.885000000000001 -2.9556 1.4976 0.15839999999999999 2.5956 2.1402 -1.2528 1.6182Z" fill="#043f6d" stroke-width="1"></path><path d="M255.42000000000002 153.4968a2.007 2.007 0 1 1 -3.9762000000000004 0.0468c0.0036000000000000003 -3.5658000000000003 3.9924 -3.2436000000000003 3.9762000000000004 -0.0468Z" fill="#043f6d" stroke-width="1"></path><path d="M101.0934 171.8442a7.651800000000001 7.651800000000001 0 0 1 -7.8354 -3.4992 14.891399999999999 14.891399999999999 0 0 1 -2.7936 -6.4332c-0.7020000000000001 -4.680000000000001 3.7800000000000002 -1.9962 9.0288 -0.765 2.2932 0.54 4.6134 0.9486000000000001 6.9426000000000005 1.3212 2.0286 0.324 2.7504 1.2491999999999999 2.0178000000000003 3.1644a11.879999999999999 11.879999999999999 0 0 1 -7.360200000000001 6.2118Zm-7.8012 -9.4104a7.38 7.38 0 0 0 5.2974000000000006 6.0462 5.8914 5.8914 0 0 0 5.6556 -2.736l-10.953 -3.3102Z" fill="#043f6d" stroke-width="1"></path><path d="M107.8848 156.9384c-2.0052000000000003 1.2942 -3.6918 0.5994 -1.9800000000000002 -1.7027999999999999a7.38 7.38 0 0 0 0.7992 -6.803999999999999c-2.5056 -8.46 -5.58 -17.46 -5.7366 -18.511200000000002 -0.057600000000000005 -0.37079999999999996 0.1494 -1.0313999999999999 0.405 -1.1358000000000001a1.26 1.26 0 0 1 1.1826 0.37079999999999996 176.22000000000003 176.22000000000003 0 0 1 7.02 18.4068 8.2332 8.2332 0 0 1 -1.6902 9.376199999999999Z" fill="#043f6d" stroke-width="1"></path><path d="M116.0568 130.7322c0.24300000000000002 2.1798 -1.0512 1.566 -1.5768 0.8694 -0.2934 -0.3888 -3.8826 -3.0132 -5.7384 -2.2482 -1.2852 0.6606 -2.5848 -0.6245999999999999 -1.2978 -2.0862000000000003 2.9412 -3.339 8.3106 0.765 8.613000000000001 3.4650000000000003Z" fill="#043f6d" stroke-width="1"></path><path d="M93.1212 143.505c-1.7892000000000001 0 -2.6892 -1.917 -2.6892 -3.24 0 -1.4814 0.4968000000000001 -3.6216 2.0142 -3.6216 4.113 0.007200000000000001 4.5738 6.8616 0.675 6.8616Z" fill="#043f6d" stroke-width="1"></path><path d="M112.09140000000001 142.42680000000001c-3.1806 -0.0594 -3.3174 -5.8968 -0.2772 -6.2244 3.285 -0.3528 3.6144000000000003 6.2892 0.2772 6.2244Z" fill="#043f6d" stroke-width="1"></path><path d="M93.384 129.0294a6.4134 6.4134 0 0 0 -5.389200000000001 3.1752000000000002c-0.9846000000000001 1.8774 -1.62 -0.23220000000000002 -1.53 -0.4752a4.8852 4.8852 0 0 1 1.3752 -2.9214 6.3612 6.3612 0 0 1 6.4098 -1.5768c2.0322 0.441 1.9854 1.7856 -0.8658 1.7982Z" fill="#043f6d" stroke-width="1"></path><path d="M72.23219999999999 289.0962c-2.4228 0 -4.86 0.0162 -7.3152 0a2.2482 2.2482 0 0 1 -2.457 -2.2716000000000003 47.3742 47.3742 0 0 1 -0.11520000000000001 -3.8826 2.0160000000000005 2.0160000000000005 0 0 1 2.0394 -2.1906000000000003c2.5398 -0.099 5.077800000000001 -0.0342 7.848000000000001 -0.0342Z" fill="#043f6d" stroke-width="1"></path><path d="M77.4702 288.26279999999997c-0.8568 -0.46440000000000003 -1.6812 -0.9846000000000001 -2.5614000000000003 -1.3572a2.7144 2.7144 0 0 1 -0.3132 -4.553999999999999c0.9 -0.5274 1.7388 -1.1592 2.8800000000000003 -1.9368Z" fill="#043f6d" stroke-width="1"></path><path d="m102.55319999999999 286.6626 1.4598000000000002 0 0 1.8774c-1.611 0.0702 -3.2094 0.1404 -4.8906 0.2214l0 -1.773 1.9584000000000001 -0.2214c-0.4284 -0.648 -0.7074 -1.1016 -1.0080000000000002 -1.5534000000000001 -2.5974000000000004 -3.8952000000000004 -2.16 -2.7 -1.4400000000000002 -4.2768 0.3366 0.2898 0.8694 0.5112 0.9864 0.8694 0.3096 0.9522 0.7290000000000001 1.7856 1.8197999999999999 1.8 1.1592 0.0234 1.4400000000000002 -0.918 1.7262 -1.8432000000000002 0.11520000000000001 -0.36000000000000004 0.54 -0.6138 0.8352 -0.9 0.6912 1.2726 1.2114 0.4266 -0.846 4.055400000000001 -0.2772 0.48780000000000007 -0.6498 0.927 -0.9738000000000001 1.3914 0.117 0.12060000000000001 0.23940000000000003 0.2376 0.3726 0.3528Z" fill="#043f6d" stroke-width="1"></path><path d="M102.6918 278.7588a13.2066 13.2066 0 0 1 -0.0468 2.619c-0.1044 0.5094 -0.6948000000000001 0.927 -1.0548 1.3788 -0.4752 -0.405 -1.3158 -0.7776 -1.3662 -1.2276a41.5062 41.5062 0 0 1 -0.24480000000000002 -5.796c0.0126 -0.4176 0.9 -1.1826 1.2402 -1.1124a2.0142 2.0142 0 0 1 1.3212 1.251 13.0716 13.0716 0 0 1 0.0594 2.8800000000000003Z" fill="#043f6d" stroke-width="1"></path><path d="M312.264 80.8452c-1.2222000000000002 -0.7542 -0.09179999999999999 -4.4028 0.1044 -7.7994 0.2934 -5.063400000000001 6.4224000000000006 -5.9399999999999995 7.522200000000001 -2.4120000000000004 0.7974 2.547 1.566 5.103 2.2374 7.685999999999999a2.5038 2.5038 0 0 1 -0.4392 1.9008 5.1606000000000005 5.1606000000000005 0 0 1 -5.04 2.3058 17.406 17.406 0 0 1 -4.3848 -1.6812ZM316.62 71.28c-1.9512000000000003 -0.1368 -2.2554 1.7802 -1.9476000000000002 3.7548 0.18000000000000002 1.125 0.7200000000000001 2.0646 1.971 2.1798 0.9 0.081 1.782 -1.1484 1.9008 -2.4120000000000004 0.15839999999999999 -1.7856 -0.12420000000000002 -3.3930000000000002 -1.9242 -3.5226Zm-0.5094 9.2376c-1.08 -1.0206 -1.9368 -1.8432000000000002 -2.9322 -2.7936 -0.18359999999999999 1.7892000000000001 0.8478 2.7972 2.9232000000000005 2.7972Zm4.553999999999999 -0.7884c-0.18000000000000002 -0.1962 -0.387 -0.405 -0.5724 -0.6030000000000001 -0.54 0.54 -1.0674 1.0674 -1.5876000000000001 1.6002 0.1494 0.162 0.30060000000000003 0.3366 0.4626 0.49860000000000004a106.803 106.803 0 0 1 1.6884 -1.4849999999999999Z" fill="#f8b6b2" stroke-width="1"></path><path d="M267.1884 290.1168c-1.7622 -0.1512 -3.3966000000000003 -0.2898 -5.04 -0.441l0 -1.7604 2.0394 0a74.8854 74.8854 0 0 1 -0.9 -1.6344c-2.0826000000000002 -3.8411999999999997 -1.6722000000000001 -2.7306 -0.9504 -4.1724000000000006 0.30060000000000003 0.324 0.7758 0.6030000000000001 0.9 0.9846000000000001 0.5292 1.7388 1.5678 2.3814 2.7234 1.4958 0.36000000000000004 -0.2772 0.4842 -0.8603999999999999 0.7992 -1.2294a6.7914 6.7914 0 0 1 1.0674 -0.846c0.5508 1.5732 1.341 0.48780000000000007 -2.6442 5.4468 0.9522 0.1512 1.449 0.23220000000000002 2.1222000000000003 0.3366 -0.0468 0.5562 -0.0828 1.125 -0.117 1.8197999999999999Z" fill="#043f6d" stroke-width="1"></path><path d="M266.43420000000003 282.6288c-0.0684 0.8694 -0.5778 1.6416000000000002 -1.4706 1.4148a2.0538000000000003 2.0538000000000003 0 0 1 -1.1718000000000002 -1.53 25.750799999999998 25.750799999999998 0 0 1 0.3132 -5.0886000000000005 2.0484 2.0484 0 0 1 1.4400000000000002 -1.2744c0.8676 -0.108 1.2078000000000002 0.6606 1.1466 1.5174 -0.3258 4.5576 -0.18359999999999999 4.0428 -0.25739999999999996 4.9608Z" fill="#043f6d" stroke-width="1"></path><path d="M240.96960000000004 278.46c-0.162 2.3760000000000003 -0.30060000000000003 4.4748 -0.441 6.66 -1.692 -0.12600000000000003 -3.2561999999999998 -0.23220000000000002 -4.8096000000000005 -0.36000000000000004a1.503 1.503 0 0 1 -1.4958 -1.6578000000000002c-0.0954 -5.3928 -0.027 -4.642200000000001 6.7464 -4.642200000000001Z" fill="#043f6d" stroke-width="1"></path><path d="M244.26 284.97060000000005c-1.0674 -0.846 -2.826 -0.9378000000000001 -2.7485999999999997 -2.7576 0.0738 -1.7154 0.279 -1.971 3.1068000000000002 -3.3156000000000003 -0.12420000000000002 2.0826000000000002 -0.25200000000000006 4.0806 -0.3582 6.0732Z" fill="#043f6d" stroke-width="1"></path><path d="M316.1016 80.52120000000001c-2.0754 0 -3.1068000000000002 -1.0080000000000002 -2.9322 -2.7936 0.9954000000000001 0.9504 1.854 1.7622 2.9322 2.7936Z" fill="#043f6d" stroke-width="1"></path><path d="M320.6556 79.74c-0.5670000000000001 0.49860000000000004 -1.1286 0.9972000000000001 -1.6974 1.4958 -0.1512 -0.162 -0.30060000000000003 -0.3366 -0.4626 -0.49860000000000004 0.54 -0.54 1.0655999999999999 -1.0655999999999999 1.5876000000000001 -1.6002 0.1962 0.1908 0.3762 0.387 0.5724 0.6030000000000001Z" fill="#043f6d" stroke-width="1"></path><path d="M113.0886 99.819a18.936 18.936 0 0 0 -2.1438 -1.6686 20.286 20.286 0 0 0 -14.059800000000001 -2.52c-25.7742 4.5 -39.439800000000005 34.6338 -36.6732 59.19480000000001 0.5670000000000001 5.04 2.2752 -1.5426 2.7828 -8.253a62.690400000000004 62.690400000000004 0 0 1 5.3424000000000005 -22.415399999999998c4.2876 -9.0648 9.747 -17.157600000000002 19.0314 -21.8844 8.2116 -4.1832 16.6212 -6.2424 25.7202 -2.4534000000000002Zm20.0286 71.62020000000001c-0.324 -4.3758 -1.9800000000000002 -3.546 -2.3922 -2.4624 -0.621 1.647 -1.0926 3.3372 -1.647 5.005800000000001 -3.2994 9.945 -11.534400000000002 24.7806 -20.271600000000003 32.025600000000004 -5.4990000000000006 4.5594 -11.107800000000001 7.518599999999999 -12.3498 9.3132 0.5274 0.2916 0.7992 0.9558000000000001 3.06 0.2268a37.394999999999996 37.394999999999996 0 0 0 16.4232 -10.98 85.095 85.095 0 0 0 14.2344 -22.7304 24.9066 24.9066 0 0 0 2.943 -10.3986ZM104.22 222.4386c0.0342 0.1044 0.0522 0.2034 0.0864 0.3186a16.2756 16.2756 0 0 0 9.0648 -2.5038 59.8554 59.8554 0 0 0 21.187800000000003 -21.339000000000002 3.7926000000000006 3.7926000000000006 0 0 0 0.24300000000000002 -2.3868 1.7766 1.7766 0 0 0 -1.0998 -1.1934c-3.1356 -0.7200000000000001 -2.3922 7.680600000000001 -22.7304 22.5 -2.1978000000000004 1.6128 -4.5018 3.0744 -6.7518 4.6044Zm25.606800000000003 -91.7298c-1.3464 0.3366 0.18000000000000002 -1.5246 -2.4282 19.242 -0.54 4.2192 -1.5678 8.3682 -2.2608 12.5748 -0.40140000000000003 2.4354 -1.5066 4.7646 -1.08 7.3494 0.198 1.1934 0.6372 1.1592 1.449 0.6606A6.12 6.12 0 0 0 127.97999999999999 166.5c3.618 -14.203800000000001 3.2561999999999998 -19.2078 2.7108 -32.7438a13.14 13.14 0 0 0 -0.864 -3.0474Zm-32.119200000000006 68.9544c0 -0.162 0 -0.3366 0.0126 -0.49860000000000004a87.22080000000001 87.22080000000001 0 0 1 -10.26 -3.9762000000000004 30.022199999999998 30.022199999999998 0 0 1 -13.509 -13.6656c-0.7398 -1.5768 -1.1232 -3.3246 -1.8377999999999999 -4.9266000000000005 -0.7668 -1.7154 -1.8377999999999999 -1.9025999999999998 -2.457 0.18000000000000002a6.66 6.66 0 0 0 0.6138 4.5666 32.0544 32.0544 0 0 0 13.284 15.183000000000002c5.824800000000001 3.5658000000000003 10.1484 3.9384000000000006 14.153400000000001 3.1374000000000004Zm-24.66 20.433600000000002a16.749 16.749 0 0 0 -2.538 -2.538 31.8186 31.8186 0 0 0 -14.1642 -4.347 6.9030000000000005 6.9030000000000005 0 0 0 -4.4172 1.1718000000000002c-2.16 1.314 -0.54 2.5992 0.7542 2.5038 9.666 -0.7236 18.9288 5.6610000000000005 20.3724 3.2094Z" fill="#043f6d" stroke-width="1"></path><path d="M129.7908 115.71120000000002c3.0474 8.2044 2.3526 13.1508 2.9448 14.6268 2.8368 7.0758 3.2778 18.968400000000003 2.9844 25.902 -0.3744 8.681400000000002 3.24 5.6178 4.2876 18.9738a44.5788 44.5788 0 0 1 -1.53 15.5196 25.612199999999998 25.612199999999998 0 0 0 -0.18000000000000002 6.5952c0 0.8766 1.4202000000000001 1.6812 5.5296 6.1092 1.494 1.62 2.2932 2.7 4.7628 5.5458l0.279 3.7908a17.3736 17.3736 0 0 0 -0.9630000000000001 1.6632 31.584600000000002 31.584600000000002 0 0 1 -6.4548 10.107000000000001 55.782 55.782 0 0 1 -11.799 8.7048c-11.5866 6.5754 -21.3444 3.7422000000000004 -24.399 4.347 -5.634 1.1142 -13.7538 5.0274 -24.4908 1.7154 -11.361600000000001 -3.5064 -15.175799999999999 -11.4606 -18.9972 -14.490000000000002 -3.7116 -2.9412 -8.2296 -3.5568 -12.8322 -3.6162a1156.122 1156.122 0 0 1 -7.2144 -1.6506c3.5892 -5.1894 7.0902 -2.6892 9.7308 -10.0206 3.9600000000000004 -10.98 -0.8748 -14.4648 -2.9556 -59.2866a74.58300000000001 74.58300000000001 0 0 1 1.089 -20.7468c3.1896 -13.527 10.0368 -24.596999999999998 22.149 -31.9338 19.908 -12.0582 49.698 -4.3668000000000005 58.059000000000005 18.144000000000002Zm-8.901000000000002 31.1904c-0.8226 -8.5194 -1.0332 -14.835600000000001 -4.8456 -19.4724a82.7496 82.7496 0 0 0 -12.3444 -12.715200000000001c-1.5858 -1.26 -4.680000000000001 0.014400000000000001 -6.4674000000000005 0.9504A45.54 45.54 0 0 0 79.30260000000001 131.22000000000003a22.3596 22.3596 0 0 0 -4.1742 9.585 63 63 0 0 0 -0.45180000000000003 10.245600000000001c0.9450000000000001 14.860800000000001 8.577 22.806 20.7252 30.506400000000003a4.0932 4.0932 0 0 0 2.9088000000000003 0.522 17.911800000000003 17.911800000000003 0 0 0 5.5296 -2.178c11.9556 -8.116200000000001 16.939799999999998 -18.464399999999998 17.049599999999998 -32.9994Zm-7.8012 -47.0826a18.936 18.936 0 0 0 -2.1438 -1.6686 20.286 20.286 0 0 0 -14.059800000000001 -2.52c-25.7742 4.5 -39.439800000000005 34.6338 -36.6732 59.19480000000001 0.5670000000000001 5.04 2.2752 -1.5426 2.7828 -8.253a62.690400000000004 62.690400000000004 0 0 1 5.3424000000000005 -22.415399999999998c4.2876 -9.0648 9.747 -17.157600000000002 19.0314 -21.8844 8.2116 -4.1832 16.6212 -6.2424 25.7202 -2.4534000000000002Zm20.0286 71.62020000000001c-0.324 -4.3758 -1.9800000000000002 -3.546 -2.3922 -2.4624 -0.621 1.647 -1.0926 3.3372 -1.647 5.005800000000001 -3.2994 9.945 -11.534400000000002 24.7806 -20.271600000000003 32.025600000000004 -5.4990000000000006 4.5594 -11.107800000000001 7.518599999999999 -12.3498 9.3132 0.5274 0.2916 0.7992 0.9558000000000001 3.06 0.2268a37.394999999999996 37.394999999999996 0 0 0 16.4232 -10.98 85.095 85.095 0 0 0 14.2344 -22.7304 24.9066 24.9066 0 0 0 2.943 -10.3986ZM104.22 222.4386c0.0342 0.1044 0.0522 0.2034 0.0864 0.3186a16.2756 16.2756 0 0 0 9.0648 -2.5038 59.8554 59.8554 0 0 0 21.187800000000003 -21.339000000000002 3.7926000000000006 3.7926000000000006 0 0 0 0.24300000000000002 -2.3868 1.7766 1.7766 0 0 0 -1.0998 -1.1934c-3.1356 -0.7200000000000001 -2.3922 7.680600000000001 -22.7304 22.5 -2.1978000000000004 1.6128 -4.5018 3.0744 -6.7518 4.6044Zm25.606800000000003 -91.7298c-1.3464 0.3366 0.18000000000000002 -1.5246 -2.4282 19.242 -0.54 4.2192 -1.5678 8.3682 -2.2608 12.5748 -0.40140000000000003 2.4354 -1.5066 4.7646 -1.08 7.3494 0.198 1.1934 0.6372 1.1592 1.449 0.6606A6.12 6.12 0 0 0 127.97999999999999 166.5c3.618 -14.203800000000001 3.2561999999999998 -19.2078 2.7108 -32.7438a13.14 13.14 0 0 0 -0.864 -3.0474Zm-32.119200000000006 68.9544c0 -0.162 0 -0.3366 0.0126 -0.49860000000000004a87.22080000000001 87.22080000000001 0 0 1 -10.26 -3.9762000000000004 30.022199999999998 30.022199999999998 0 0 1 -13.509 -13.6656c-0.7398 -1.5768 -1.1232 -3.3246 -1.8377999999999999 -4.9266000000000005 -0.7668 -1.7154 -1.8377999999999999 -1.9025999999999998 -2.457 0.18000000000000002a6.66 6.66 0 0 0 0.6138 4.5666 32.0544 32.0544 0 0 0 13.284 15.183000000000002c5.824800000000001 3.5658000000000003 10.1484 3.9384000000000006 14.153400000000001 3.1374000000000004Zm-24.66 20.433600000000002a16.749 16.749 0 0 0 -2.538 -2.538 31.8186 31.8186 0 0 0 -14.1642 -4.347 6.9030000000000005 6.9030000000000005 0 0 0 -4.4172 1.1718000000000002c-2.16 1.314 -0.54 2.5992 0.7542 2.5038 9.666 -0.7236 18.9288 5.6610000000000005 20.3724 3.2094Z" fill="#f8b6b2" stroke-width="1"></path></g></svg>